<svg xmlns="http://www.w3.org/2000/svg" viewBox="0 0 947.64 160" width="947.64" height="160" role="img" aria-label="Ferretry — fleet grid">
<title>Ferretry — fleet grid</title>
<g transform="translate(20 20) scale(1.875)"><rect x="4" y="4" width="16" height="16" rx="4" fill="#f2f2f4"/><rect x="24" y="4" width="16" height="16" rx="4" fill="#f2f2f4"/><rect x="44" y="4" width="16" height="16" rx="4" fill="#f2f2f4"/><rect x="4" y="24" width="16" height="16" rx="4" fill="#f2f2f4"/><rect x="4" y="44" width="16" height="16" rx="4" fill="#f2f2f4"/><rect x="24" y="44" width="16" height="16" rx="4" fill="#f2f2f4"/><rect x="44" y="44" width="16" height="16" rx="4" fill="#f2f2f4"/><circle cx="32" cy="32" r="8" fill="#8f93ee"/></g><g transform="translate(182 30)"><g transform="translate(0 0)"><path d="M 5 0 V 100 M 0 5 H 60.76 M 0 47 H 46.178" fill="none" stroke="#f2f2f4" stroke-width="10" stroke-linecap="butt" stroke-linejoin="miter"/></g><g transform="translate(94.76 0)"><path d="M 5 0 V 100 M 0 5 H 60.76 M 0 47 H 48.608 M 0 95 H 60.76" fill="none" stroke="#f2f2f4" stroke-width="10" stroke-linecap="butt" stroke-linejoin="miter"/></g><g transform="translate(189.52 0)"><path d="M 5 0 V 100 M 0 5 H 37.68 A 22 22 0 0 1 37.68 49 H 0 M 29.753 49 L 59.68 100" fill="none" stroke="#f2f2f4" stroke-width="10" stroke-linecap="butt" stroke-linejoin="miter"/></g><g transform="translate(288.2 0)"><path d="M 5 0 V 100 M 0 5 H 37.68 A 22 22 0 0 1 37.68 49 H 0 M 29.753 49 L 59.68 100" fill="none" stroke="#f2f2f4" stroke-width="10" stroke-linecap="butt" stroke-linejoin="miter"/></g><g transform="translate(386.88 0)"><path d="M 5 0 V 100 M 0 5 H 60.76 M 0 47 H 48.608 M 0 95 H 60.76" fill="none" stroke="#f2f2f4" stroke-width="10" stroke-linecap="butt" stroke-linejoin="miter"/></g><g transform="translate(481.64 0)"><path d="M 0 5 H 64.68 M 32.34 0 V 100" fill="none" stroke="#f2f2f4" stroke-width="10" stroke-linecap="butt" stroke-linejoin="miter"/></g><g transform="translate(580.32 0)"><path d="M 5 0 V 100 M 0 5 H 37.68 A 22 22 0 0 1 37.68 49 H 0 M 29.753 49 L 59.68 100" fill="none" stroke="#f2f2f4" stroke-width="10" stroke-linecap="butt" stroke-linejoin="miter"/></g><g transform="translate(679 0)"><path d="M 5 0 L 33.32 46 L 61.64 0 M 33.32 41 V 100" fill="none" stroke="#f2f2f4" stroke-width="10" stroke-linecap="butt" stroke-linejoin="miter"/></g></g>
</svg>
