<svg xmlns="http://www.w3.org/2000/svg" viewBox="0 0 838.36 164" width="838.36" height="164" role="img" aria-label="Ferretry — monogram">
<title>Ferretry — monogram</title>
<g transform="translate(20 20) scale(1.938)"><rect x="8" y="8" width="12" height="52" rx="2" fill="#17171b"/><rect x="8" y="8" width="44" height="12" rx="2" fill="#17171b"/><rect x="8" y="28" width="32" height="12" rx="2" fill="#17171b"/><rect x="24" y="48" width="32" height="12" rx="2" fill="#4f52d6"/></g><g transform="translate(178 32)"><g transform="translate(0 0)"><path d="M 9 0 V 100 M 0 9 H 63.24 M 0 47 H 48.062" fill="none" stroke="#17171b" stroke-width="18" stroke-linecap="butt" stroke-linejoin="miter"/></g><g transform="translate(79.24 0)"><path d="M 9 0 V 100 M 0 9 H 63.24 M 0 47 H 50.592 M 0 91 H 63.24" fill="none" stroke="#17171b" stroke-width="18" stroke-linecap="butt" stroke-linejoin="miter"/></g><g transform="translate(158.48 0)"><path d="M 9 0 V 100 M 0 9 H 40.32 A 18 18 0 0 1 40.32 45 H 0 M 30.967 45 L 58.32 100" fill="none" stroke="#17171b" stroke-width="18" stroke-linecap="butt" stroke-linejoin="miter"/></g><g transform="translate(241.8 0)"><path d="M 9 0 V 100 M 0 9 H 40.32 A 18 18 0 0 1 40.32 45 H 0 M 30.967 45 L 58.32 100" fill="none" stroke="#17171b" stroke-width="18" stroke-linecap="butt" stroke-linejoin="miter"/></g><g transform="translate(325.12 0)"><path d="M 9 0 V 100 M 0 9 H 63.24 M 0 47 H 50.592 M 0 91 H 63.24" fill="none" stroke="#17171b" stroke-width="18" stroke-linecap="butt" stroke-linejoin="miter"/></g><g transform="translate(404.36 0)"><path d="M 0 9 H 67.32 M 33.66 0 V 100" fill="none" stroke="#17171b" stroke-width="18" stroke-linecap="butt" stroke-linejoin="miter"/></g><g transform="translate(487.68 0)"><path d="M 9 0 V 100 M 0 9 H 40.32 A 18 18 0 0 1 40.32 45 H 0 M 30.967 45 L 58.32 100" fill="none" stroke="#17171b" stroke-width="18" stroke-linecap="butt" stroke-linejoin="miter"/></g><g transform="translate(571 0)"><path d="M 9 0 L 34.68 46 L 60.36 0 M 34.68 37 V 100" fill="none" stroke="#17171b" stroke-width="18" stroke-linecap="butt" stroke-linejoin="miter"/></g></g>
</svg>
